<svg xmlns="http://www.w3.org/2000/svg" version="1.1" xmlns:xlink="http://www.w3.org/1999/xlink" xmlns:svgjs="http://svgjs.com/svgjs" width="1440" height="560" preserveAspectRatio="none" viewBox="0 0 1440 560"><g mask="url(&quot;#SvgjsMask1006&quot;)" fill="none"><rect width="1440" height="560" x="0" y="0" fill="url(#SvgjsLinearGradient1007)"></rect><path d="M653.1472665286219 122.6457156574689L559.4712777511853 139.16331992347435 631.0856785389118 271.4185009566264z" fill="rgba(28, 83, 142, 0.4)" class="triangle-float2"></path><path d="M743.787,375.545C790.992,371.387,830.781,346.07,857.165,306.706C887.781,261.028,916.346,205.073,890.624,156.471C863.856,105.893,801.012,92.369,743.787,92.482C686.808,92.595,628.957,109.244,597.956,157.051C564.245,209.037,555.191,278.74,589.587,330.275C621.461,378.031,686.592,380.583,743.787,375.545" fill="rgba(28, 83, 142, 0.4)" class="triangle-float3"></path><path d="M203.82628908156067 269.1602971044609L135.811985911792 164.42745461507093 31.079143422402012 232.44175778483958 99.09344659217071 337.17460027422953z" fill="rgba(28, 83, 142, 0.4)" class="triangle-float3"></path><path d="M347.4961939715797 58.81679403038703L255.6128131965849-29.913955375349488 166.8820637908484 61.96942539964532 258.7654445658432 150.70017480538183z" fill="rgba(28, 83, 142, 0.4)" class="triangle-float1"></path><path d="M1298.119,586.535C1344.669,584.982,1373.356,540.674,1395.224,499.551C1415.371,461.664,1427.594,418.231,1407.889,380.112C1386.669,339.062,1344.302,313.292,1298.119,311.701C1248.972,310.008,1198.438,329.158,1174.415,372.067C1150.826,414.202,1164.973,464.599,1189.1,506.429C1213.249,548.297,1249.813,588.147,1298.119,586.535" fill="rgba(28, 83, 142, 0.4)" class="triangle-float1"></path><path d="M729.105,516.52C756.298,515.214,779.383,497.468,791.835,473.258C803.263,451.039,799.247,425.389,787.249,403.472C774.656,380.467,755.324,359.273,729.105,358.663C702.054,358.033,680.193,377.568,666.074,400.65C651.169,425.017,641.341,454.739,654.99,479.831C669.108,505.784,699.594,517.937,729.105,516.52" fill="rgba(28, 83, 142, 0.4)" class="triangle-float3"></path></g><defs><mask id="SvgjsMask1006"><rect width="1440" height="560" fill="#ffffff"></rect></mask><linearGradient x1="15.28%" y1="-39.29%" x2="84.72%" y2="139.29%" gradientUnits="userSpaceOnUse" id="SvgjsLinearGradient1007"><stop stop-color="#0e2a47" offset="0"></stop><stop stop-color="#00459e" offset="1"></stop></linearGradient><style>
            @keyframes float1 {
                0%{transform: translate(0, 0)}
                50%{transform: translate(-10px, 0)}
                100%{transform: translate(0, 0)}
            }

            .triangle-float1 {
                animation: float1 5s infinite;
            }

            @keyframes float2 {
                0%{transform: translate(0, 0)}
                50%{transform: translate(-5px, -5px)}
                100%{transform: translate(0, 0)}
            }

            .triangle-float2 {
                animation: float2 4s infinite;
            }

            @keyframes float3 {
                0%{transform: translate(0, 0)}
                50%{transform: translate(0, -10px)}
                100%{transform: translate(0, 0)}
            }

            .triangle-float3 {
                animation: float3 6s infinite;
            }
        </style></defs></svg>